# xmcd CD database file
#
# Track frame offsets:
#	150
#	21952
#	42252
#
# Disc length: 863 seconds
#
# Revision: 2
# Processed by: cddbd v1.4PL0 Copyright (c) Steve Scherf et al.
# Submitted via: CDex 1.40Beta8
#
DISCID=1d035d03
DTITLE=hide with Spread Beaver - TELL ME
DYEAR=2000
DGENRE=Rock
TTITLE0=TELL ME
TTITLE1=PINK SPIDER
TTITLE2=TELL ME (voiceless version)
EXTD=YEAR: 2000 ID3G: 17
EXTT0=
EXTT1=
EXTT2=
PLAYORDER=
